<mxfile host="65bd71144e">
    <diagram id="omBDMcqDKpYyKjQIqJD_" name="Page-1">
        <mxGraphModel dx="1179" dy="681" grid="1" gridSize="10" guides="1" tooltips="1" connect="1" arrows="1" fold="1" page="1" pageScale="1" pageWidth="827" pageHeight="1169" math="0" shadow="0">
            <root>
                <mxCell id="0"/>
                <mxCell id="1" parent="0"/>
                <mxCell id="2" value="" style="endArrow=none;dashed=1;html=1;" edge="1" parent="1">
                    <mxGeometry width="50" height="50" relative="1" as="geometry">
                        <mxPoint x="40" y="280" as="sourcePoint"/>
                        <mxPoint x="800" y="280" as="targetPoint"/>
                    </mxGeometry>
                </mxCell>
                <mxCell id="3" value="Custom CAN Apps" style="rounded=1;whiteSpace=wrap;html=1;" vertex="1" parent="1">
                    <mxGeometry x="50" y="170" width="120" height="60" as="geometry"/>
                </mxCell>
                <mxCell id="5" value="Canutils" style="rounded=1;whiteSpace=wrap;html=1;" vertex="1" parent="1">
                    <mxGeometry x="200" y="170" width="120" height="60" as="geometry"/>
                </mxCell>
                <mxCell id="6" value="User Space" style="text;html=1;strokeColor=none;fillColor=none;align=center;verticalAlign=middle;whiteSpace=wrap;rounded=0;fontSize=18;fontStyle=1" vertex="1" parent="1">
                    <mxGeometry x="425" y="160" width="70" height="70" as="geometry"/>
                </mxCell>
                <mxCell id="7" value="Applications" style="rounded=1;whiteSpace=wrap;html=1;" vertex="1" parent="1">
                    <mxGeometry x="600" y="170" width="170" height="60" as="geometry"/>
                </mxCell>
                <mxCell id="8" value="Socket Layer" style="rounded=1;whiteSpace=wrap;html=1;" vertex="1" parent="1">
                    <mxGeometry x="60" y="320" width="280" height="60" as="geometry"/>
                </mxCell>
                <mxCell id="9" value="" style="rounded=1;whiteSpace=wrap;html=1;fillColor=#6d8764;strokeColor=#3A5431;fontColor=#ffffff;" vertex="1" parent="1">
                    <mxGeometry x="40" y="410" width="160" height="110" as="geometry"/>
                </mxCell>
                <mxCell id="10" value="SocketCAN" style="text;html=1;strokeColor=none;fillColor=none;align=center;verticalAlign=middle;whiteSpace=wrap;rounded=0;rotation=90;" vertex="1" parent="1">
                    <mxGeometry x="20" y="450" width="60" height="30" as="geometry"/>
                </mxCell>
                <mxCell id="11" value="PROTOL Family CAN" style="rounded=1;whiteSpace=wrap;html=1;fillColor=#647687;fontColor=#ffffff;strokeColor=#314354;" vertex="1" parent="1">
                    <mxGeometry x="90" y="410" width="110" height="60" as="geometry"/>
                </mxCell>
                <mxCell id="12" value="Network Device Drivers" style="rounded=1;whiteSpace=wrap;html=1;fillStyle=auto;fillColor=#647687;fontColor=#ffffff;strokeColor=#314354;" vertex="1" parent="1">
                    <mxGeometry x="90" y="480" width="250" height="40" as="geometry"/>
                </mxCell>
                <mxCell id="13" value="PROTOL Family Internet&amp;nbsp;" style="rounded=1;whiteSpace=wrap;html=1;" vertex="1" parent="1">
                    <mxGeometry x="220" y="410" width="110" height="60" as="geometry"/>
                </mxCell>
                <mxCell id="14" value="Character/Block&amp;nbsp; Device Driver" style="rounded=1;whiteSpace=wrap;html=1;" vertex="1" parent="1">
                    <mxGeometry x="590" y="320" width="190" height="200" as="geometry"/>
                </mxCell>
                <mxCell id="15" value="" style="endArrow=none;dashed=1;html=1;" edge="1" parent="1">
                    <mxGeometry width="50" height="50" relative="1" as="geometry">
                        <mxPoint x="33.99999999999977" y="600" as="sourcePoint"/>
                        <mxPoint x="794" y="600" as="targetPoint"/>
                    </mxGeometry>
                </mxCell>
                <mxCell id="16" value="User Space" style="text;html=1;strokeColor=none;fillColor=none;align=center;verticalAlign=middle;whiteSpace=wrap;rounded=0;fontSize=18;fontStyle=1" vertex="1" parent="1">
                    <mxGeometry x="420" y="350" width="80" height="150" as="geometry"/>
                </mxCell>
                <mxCell id="17" value="Hardware" style="text;html=1;strokeColor=none;fillColor=none;align=center;verticalAlign=middle;whiteSpace=wrap;rounded=0;fontSize=18;fontStyle=1" vertex="1" parent="1">
                    <mxGeometry x="425" y="620" width="70" height="70" as="geometry"/>
                </mxCell>
                <mxCell id="18" value="CAN Controller" style="rounded=1;whiteSpace=wrap;html=1;" vertex="1" parent="1">
                    <mxGeometry x="90" y="630" width="230" height="50" as="geometry"/>
                </mxCell>
                <mxCell id="19" value="Others" style="rounded=1;whiteSpace=wrap;html=1;" vertex="1" parent="1">
                    <mxGeometry x="550" y="630" width="230" height="50" as="geometry"/>
                </mxCell>
            </root>
        </mxGraphModel>
    </diagram>
</mxfile>